<?xml version="1.0" standalone="no"?>
<!DOCTYPE svg PUBLIC "-//W3C//DTD SVG 20010904//EN"
 "http://www.w3.org/TR/2001/REC-SVG-20010904/DTD/svg10.dtd">
<svg version="1.0" xmlns="http://www.w3.org/2000/svg"
 width="1500.000000pt" height="1500.000000pt" viewBox="0 0 1500.000000 1500.000000"
 preserveAspectRatio="xMidYMid meet">
<metadata>
Created by potrace 1.11, written by Peter Selinger 2001-2013
</metadata>
<g transform="translate(0.000000,1500.000000) scale(0.100000,-0.100000)"
fill="#000000" stroke="none">
<path d="M6690 10584 c-399 -166 -745 -312 -770 -322 -89 -38 -226 -96 -280
-117 -30 -13 -127 -53 -215 -89 -88 -37 -198 -83 -245 -103 -47 -19 -98 -41
-115 -48 -16 -7 -178 -75 -360 -150 -181 -75 -343 -143 -360 -150 -16 -7 -113
-48 -215 -89 -102 -42 -194 -81 -205 -86 -17 -8 -334 -141 -1430 -597 -99 -41
-193 -81 -210 -88 -16 -7 -248 -104 -515 -214 -571 -237 -600 -250 -705 -312
-315 -185 -492 -425 -550 -745 -21 -118 -14 -335 14 -449 82 -323 336 -608
691 -777 52 -25 123 -55 157 -68 62 -22 64 -22 100 -4 21 9 78 32 127 49 86
31 88 32 60 43 -16 5 -87 31 -157 56 -419 149 -646 344 -780 668 -13 32 -21
63 -42 168 -6 29 -7 178 -1 235 22 216 138 423 319 566 136 107 198 139 597
304 168 69 319 132 335 140 17 7 453 189 970 405 517 215 954 397 970 405 17
7 95 40 175 73 159 66 466 194 1875 782 517 216 965 403 995 415 101 41 139
57 210 88 142 61 286 119 299 119 12 1 606 -243 899 -368 17 -8 47 -20 65 -28
17 -8 88 -37 157 -65 69 -29 134 -56 145 -61 16 -7 463 -194 600 -250 17 -7
44 -19 60 -26 17 -7 453 -188 970 -404 517 -215 956 -398 975 -407 57 -24 72
-31 140 -59 36 -14 79 -32 95 -39 98 -41 219 -92 875 -365 399 -167 817 -341
930 -387 113 -47 245 -105 295 -130 309 -155 500 -398 540 -688 7 -51 7 -232
1 -265 -5 -23 -18 -78 -21 -90 -1 -3 -5 -18 -10 -35 -16 -56 -66 -158 -111
-227 -124 -186 -371 -365 -624 -454 -85 -29 -100 -44 -47 -45 17 0 41 -2 52
-4 11 -3 49 -7 85 -10 36 -4 90 -9 120 -13 45 -6 62 -4 90 11 211 114 394 282
503 462 165 271 194 635 75 935 -84 212 -253 399 -480 533 -67 40 -105 59
-223 112 -16 8 -136 57 -265 110 -129 53 -248 102 -265 110 -16 7 -53 23 -81
34 -28 11 -71 28 -95 39 -24 11 -96 41 -159 67 -63 26 -140 58 -170 71 -30 13
-127 53 -215 90 -88 36 -173 72 -190 79 -16 7 -43 18 -60 25 -254 105 -534
222 -550 230 -11 5 -157 66 -325 135 -168 70 -330 137 -360 150 -30 13 -192
81 -360 150 -279 116 -337 140 -395 166 -22 10 -2479 1034 -2590 1080 -38 16
-74 28 -80 28 -5 -1 -336 -138 -735 -305z"/>
<path d="M7272 10112 l-52 -3 136 -267 c75 -147 185 -361 244 -477 59 -115
129 -252 155 -303 26 -51 48 -92 50 -90 1 2 63 122 137 268 75 146 204 399
288 563 83 164 149 301 146 304 -8 8 -152 6 -191 -3 -43 -9 -96 -38 -121 -66
-12 -12 -75 -128 -140 -255 -65 -128 -120 -233 -123 -233 -3 1 -58 105 -121
232 -63 127 -127 243 -142 258 -54 54 -144 79 -266 72z"/>
<path d="M6765 10086 c-28 -12 -65 -40 -84 -61 -66 -75 -64 -61 -65 -583 l-2
-473 376 3 375 3 46 27 c25 15 60 43 77 63 30 33 69 136 59 152 -3 5 -154 8
-336 8 -214 0 -332 3 -334 10 -2 5 -3 205 -3 443 l1 432 -30 0 c-16 0 -53 -11
-80 -24z"/>
<path d="M9259 9694 c-4 -278 -35 -386 -124 -432 -31 -15 -128 -31 -240 -37
-115 -7 -137 -15 -44 -16 84 0 137 -6 229 -26 119 -25 150 -69 166 -243 3 -30
7 -68 9 -85 1 -16 4 -50 5 -75 2 -28 6 -7 11 55 15 199 28 253 70 296 36 37
85 58 147 65 26 2 57 6 70 9 12 2 50 5 82 6 72 3 71 10 -2 14 -227 12 -289 39
-327 138 -26 71 -30 101 -37 247 -7 130 -13 170 -15 84z"/>
<path d="M5729 9644 c-1 -38 -1 -72 -1 -75 3 -21 -21 -152 -34 -192 -31 -93
-82 -126 -219 -141 -168 -18 -195 -25 -104 -27 170 -3 267 -36 309 -104 28
-45 47 -171 49 -314 1 -80 10 -57 15 40 10 187 32 275 76 312 44 38 181 64
339 66 84 1 56 9 -54 15 -170 10 -225 23 -277 66 -54 45 -73 114 -83 304 -6
126 -14 151 -16 50z"/>
<path d="M2980 8309 c-20 -4 -47 -21 -62 -38 l-28 -31 0 -675 0 -675 23 -1
c46 -2 162 3 169 7 4 3 8 147 8 319 l0 314 37 -25 38 -25 305 3 305 3 58 27
c64 30 167 127 167 158 0 10 4 21 9 24 16 10 23 81 23 221 0 121 -2 138 -25
188 -45 100 -141 177 -250 204 -34 8 -738 10 -777 2z m773 -183 c69 -37 78
-67 75 -243 -3 -146 -4 -152 -28 -178 -54 -58 -59 -59 -384 -60 -237 0 -302 2
-313 13 -10 10 -13 65 -13 242 0 208 2 230 18 239 10 6 133 9 311 9 279 -1
296 -2 334 -22z"/>
<path d="M4309 8309 c-19 -4 -46 -21 -61 -38 l-28 -31 0 -675 c0 -636 1 -675
18 -676 49 -3 164 1 172 6 6 4 10 136 10 336 l0 329 27 -17 c23 -15 58 -19
226 -23 l198 -5 43 -80 c23 -44 73 -138 111 -210 140 -268 168 -320 176 -329
8 -9 197 -12 205 -3 3 3 -13 40 -37 84 -102 191 -120 225 -184 348 -38 72 -76
145 -86 164 l-18 34 62 25 c94 37 160 91 192 157 26 52 27 63 28 202 0 82 -5
166 -12 189 -25 91 -110 168 -221 201 -46 14 -114 17 -421 17 -201 1 -381 -2
-400 -5z m779 -184 c62 -37 74 -71 74 -203 0 -64 -5 -128 -10 -142 -14 -36
-62 -77 -102 -87 -43 -11 -600 -11 -617 0 -10 6 -13 62 -13 222 0 193 2 215
18 224 10 6 134 9 317 8 280 -2 302 -3 333 -22z"/>
<path d="M5890 8308 c-124 -13 -234 -89 -284 -197 -20 -45 -21 -61 -24 -497
-3 -436 -2 -453 18 -507 38 -102 132 -181 245 -207 40 -9 585 -17 778 -11 27
1 27 1 27 76 0 57 -4 77 -15 81 -8 3 -180 7 -382 8 -345 2 -370 3 -400 21 -64
39 -73 72 -73 269 l0 176 395 0 395 0 4 23 c3 12 4 49 3 82 l-2 60 -365 0
c-319 -1 -369 -3 -397 -17 l-33 -16 0 189 c0 212 4 228 67 276 l36 28 371 2
c204 2 376 5 383 7 9 4 13 29 13 83 l0 78 -347 0 c-192 0 -377 -3 -413 -7z"/>
<path d="M6880 8310 l-35 -5 -1 -707 -2 -708 93 0 c63 0 95 4 101 13 5 6 9
254 8 560 0 301 0 546 2 545 3 -4 123 -206 152 -258 14 -25 51 -88 82 -140 31
-52 68 -115 82 -140 91 -162 129 -218 150 -222 13 -2 61 -3 107 -3 70 1 86 4
98 21 8 10 106 178 219 371 113 194 209 355 213 358 5 2 8 -240 8 -539 0 -298
3 -548 7 -554 5 -8 40 -12 101 -12 l93 0 0 705 c-1 476 -4 708 -11 712 -6 4
-51 6 -101 5 -71 -2 -95 -6 -108 -20 -10 -9 -83 -125 -164 -257 -255 -418
-339 -555 -349 -573 -6 -9 -14 -23 -18 -30 -6 -8 -40 40 -104 145 -52 87 -129
214 -171 283 -43 69 -81 133 -87 143 -78 139 -184 299 -200 302 -35 8 -129 10
-165 5z"/>
<path d="M8659 8291 c0 -15 -1 -332 -1 -705 0 -740 -3 -706 54 -700 13 1 50 3
84 3 l61 1 0 705 c0 476 -3 708 -10 712 -6 3 -50 7 -99 8 -88 1 -88 1 -89 -24z"/>
<path d="M9147 8306 c-2 -6 -3 -272 -2 -591 l0 -580 28 -57 c33 -68 99 -131
175 -166 l57 -27 335 0 336 0 74 38 c54 26 86 51 115 86 75 93 73 77 73 728
l0 580 -94 -2 c-52 -1 -97 -5 -100 -8 -4 -4 -7 -267 -8 -584 l-1 -578 -23 -33
c-46 -64 -56 -66 -367 -66 l-280 -1 -46 27 c-78 46 -76 25 -75 661 1 307 -2
563 -6 569 -9 15 -186 18 -191 4z"/>
<path d="M10624 8311 c-10 -2 -22 -8 -25 -13 -4 -6 -7 -325 -7 -709 l0 -699
98 0 c85 0 98 2 102 18 2 9 4 259 3 555 0 295 2 537 5 537 3 0 102 -167 220
-370 125 -214 223 -372 235 -378 32 -14 194 -8 209 9 12 13 186 307 370 627
l71 123 5 -558 5 -558 98 -3 97 -3 0 705 c0 496 -3 707 -11 712 -18 11 -189 6
-204 -6 -8 -6 -67 -98 -131 -203 -64 -106 -127 -208 -139 -227 -12 -19 -78
-126 -145 -237 -67 -112 -126 -203 -130 -203 -5 0 -23 26 -42 57 -47 82 -55
95 -133 223 -39 63 -74 123 -80 133 -96 168 -283 458 -299 463 -23 8 -142 11
-172 5z"/>
<path d="M1543 7605 c0 -8 4 -12 9 -9 5 3 6 10 3 15 -9 13 -12 11 -12 -6z"/>
<path d="M13439 7564 c-3 -159 -34 -196 -174 -209 -38 -4 -71 -8 -73 -9 -1 -2
31 -6 71 -9 93 -7 140 -26 155 -63 12 -33 21 -91 22 -148 0 -55 7 -42 14 29
15 139 40 171 145 182 58 6 72 14 33 19 -9 2 -37 6 -62 9 -75 11 -101 49 -115
169 -6 57 -15 73 -16 30z"/>
<path d="M1539 7539 c-2 -133 -39 -173 -173 -184 -86 -7 -98 -15 -25 -16 100
-1 158 -20 179 -59 5 -10 13 -53 17 -95 6 -79 12 -89 18 -34 11 95 18 119 39
142 26 28 81 47 135 47 34 0 36 12 3 16 -89 13 -109 18 -126 32 -28 25 -45 77
-50 149 -3 50 -16 51 -17 2z"/>
<path d="M1776 7351 c-3 -4 6 -8 20 -9 13 -1 24 0 24 2 0 7 -40 14 -44 7z"/>
<path d="M13675 7350 c-3 -5 -1 -10 4 -10 6 0 11 5 11 10 0 6 -2 10 -4 10 -3
0 -8 -4 -11 -10z"/>
<path d="M1545 7089 c-4 -6 -5 -12 -2 -15 2 -3 7 2 10 11 7 17 1 20 -8 4z"/>
<path d="M6717 6494 c-1 -1 -186 -5 -412 -8 -688 -11 -1084 -25 -1705 -61
-215 -13 -539 -37 -680 -50 -25 -2 -83 -7 -130 -10 -47 -3 -101 -7 -120 -10
-19 -2 -62 -7 -95 -10 -122 -11 -171 -16 -200 -20 -17 -2 -60 -7 -95 -10 -36
-3 -81 -7 -100 -10 -55 -7 -110 -14 -170 -20 -30 -3 -68 -8 -85 -10 -143 -19
-194 -26 -220 -30 -144 -19 -198 -25 -245 -30 -130 -13 -221 -24 -260 -31 -14
-2 -43 -6 -65 -9 -71 -9 -248 -46 -344 -72 -204 -55 -369 -134 -460 -222 -92
-90 -123 -169 -109 -274 8 -59 53 -166 74 -174 6 -2 32 7 57 21 65 36 243 108
374 150 95 30 346 100 401 111 9 2 47 10 85 19 37 9 81 18 97 21 17 3 63 12
103 21 80 17 80 17 227 44 137 24 179 31 215 37 17 2 68 11 115 18 47 8 150
24 230 35 188 26 207 29 255 35 21 2 73 9 115 14 41 6 100 13 130 16 30 3 66
8 80 10 14 2 54 7 90 10 36 4 76 8 90 10 14 2 57 6 95 10 39 3 81 8 95 10 14
2 61 6 104 10 43 4 86 8 95 10 9 1 57 6 106 9 50 4 106 9 125 11 19 2 71 7
115 10 44 3 103 8 130 10 54 5 137 12 255 20 41 3 102 7 135 10 33 2 101 7
150 10 50 3 122 8 160 10 39 3 113 7 165 10 52 3 133 7 180 10 81 5 121 7 415
20 72 3 168 7 215 10 84 5 363 14 575 20 61 1 238 7 395 11 157 5 767 8 1355
8 924 1 1322 -4 1850 -19 317 -9 531 -16 630 -20 61 -3 169 -7 240 -10 72 -3
175 -7 230 -10 55 -3 163 -7 240 -10 77 -3 176 -8 220 -11 44 -2 123 -7 175
-9 108 -5 230 -12 340 -19 41 -3 122 -8 180 -11 58 -3 137 -8 175 -11 39 -3
102 -7 140 -9 194 -11 264 -15 310 -20 28 -2 91 -7 140 -10 50 -4 110 -8 135
-10 25 -2 86 -7 135 -10 114 -8 150 -11 309 -25 70 -6 130 -9 133 -7 2 2 -47
10 -109 17 -62 7 -121 14 -130 15 -9 2 -48 7 -85 10 -37 4 -76 9 -85 10 -9 2
-48 7 -85 10 -37 4 -75 9 -83 10 -8 2 -49 6 -90 10 -41 4 -82 8 -90 10 -8 2
-46 6 -85 10 -38 4 -80 8 -93 10 -13 2 -53 7 -90 10 -37 3 -76 8 -87 10 -11 2
-56 7 -100 10 -44 4 -91 8 -105 10 -44 6 -212 24 -290 31 -60 5 -147 14 -190
19 -43 5 -123 12 -330 30 -36 3 -83 7 -105 10 -22 2 -71 7 -110 10 -38 3 -90
8 -115 10 -25 3 -79 7 -119 10 -41 3 -93 7 -115 10 -40 4 -117 10 -241 20
-153 12 -195 15 -270 20 -44 3 -100 7 -125 10 -25 3 -85 7 -135 10 -92 5 -168
10 -290 20 -78 6 -163 11 -310 20 -55 3 -131 8 -170 10 -38 3 -115 7 -170 10
-55 3 -140 7 -190 10 -268 15 -306 17 -645 30 -69 3 -174 7 -235 10 -60 2
-204 7 -320 11 -115 3 -262 8 -325 9 -278 9 -1567 24 -1573 19z"/>
<path d="M8148 6055 c-2 -1 -187 -5 -413 -9 -225 -4 -468 -8 -540 -10 -219 -7
-508 -17 -596 -21 -46 -2 -149 -6 -229 -9 -80 -3 -181 -8 -225 -11 -44 -2
-134 -7 -200 -10 -66 -3 -149 -8 -185 -10 -36 -3 -108 -7 -160 -10 -147 -8
-260 -15 -320 -20 -52 -5 -91 -7 -276 -20 -45 -3 -99 -7 -120 -9 -21 -2 -79
-7 -129 -11 -49 -3 -108 -8 -130 -10 -22 -3 -69 -7 -104 -10 -95 -8 -170 -15
-221 -20 -25 -3 -70 -7 -100 -10 -30 -3 -75 -7 -100 -10 -25 -3 -67 -7 -95
-10 -46 -4 -87 -9 -185 -20 -19 -2 -71 -9 -115 -14 -44 -6 -102 -13 -130 -16
-55 -6 -110 -13 -170 -21 -73 -10 -89 -12 -185 -25 -52 -6 -98 -15 -102 -18
-6 -5 396 -161 947 -366 33 -12 380 -143 770 -290 391 -147 744 -280 785 -295
41 -16 244 -92 450 -170 206 -77 591 -222 855 -322 l480 -180 295 107 c162 59
302 108 310 110 8 2 85 30 170 61 280 102 515 186 525 189 6 1 17 5 25 8 8 4
168 61 355 128 187 66 419 149 515 184 96 34 279 100 405 145 127 45 253 90
280 100 50 19 231 84 460 165 66 23 136 49 155 57 19 8 37 15 40 16 14 2 80
25 210 72 63 23 176 63 250 89 74 27 239 85 365 130 127 45 248 89 270 98 22
8 83 30 135 49 235 82 397 142 390 144 -15 5 -69 9 -195 14 -77 4 -169 8 -205
11 -77 4 -293 14 -440 20 -58 3 -161 7 -230 10 -69 3 -190 7 -270 10 -80 2
-210 7 -290 10 -138 5 -364 11 -785 21 -207 5 -1992 13 -1997 9z"/>
</g>
</svg>
